<svg xmlns="http://www.w3.org/2000/svg" viewBox="0 0 640 420">
  <rect width="640" height="420" rx="28" fill="#fff3d6"/>
  <rect x="70" y="118" width="350" height="190" rx="30" fill="#263f2f"/>
  <path d="M101 188h295v63H101z" fill="#f6c46b"/>
  <path d="M118 153h250c21 0 38 17 38 38H80c0-21 17-38 38-38Z" fill="#a84324"/>
  <path d="M112 245h282c15 0 27 12 27 27s-12 27-27 27H112c-15 0-27-12-27-27s12-27 27-27Z" fill="#fffaf0"/>
  <circle cx="162" cy="179" r="10" fill="#4c2819"/>
  <circle cx="231" cy="179" r="10" fill="#4c2819"/>
  <circle cx="301" cy="179" r="10" fill="#4c2819"/>
  <rect x="446" y="123" width="91" height="190" rx="20" fill="#d63f2f"/>
  <rect x="459" y="145" width="65" height="129" rx="14" fill="#fff7e8" opacity=".88"/>
  <path d="M468 293h47" stroke="#7b1d19" stroke-width="12" stroke-linecap="round"/>
  <text x="100" y="370" fill="#123026" font-family="Arial" font-size="34" font-weight="900">CHURRASCO COMPLETO</text>
</svg>
